<svg xmlns="http://www.w3.org/2000/svg" width="171.277" height="205.509" viewBox="0 0 171.277 205.509">
  <g id="checklist" transform="translate(-0.5 0)">
    <path id="Path_1" data-name="Path 1" d="M159.789,8.535H15.933a6.9,6.9,0,0,0-6.85,6.85V200.342a6.871,6.871,0,0,0,6.85,6.85H146.089a6.87,6.87,0,0,0,6.85-6.85V35.936h17.125a3.425,3.425,0,0,0,3.426-3.426V22.235a13.7,13.7,0,0,0-13.7-13.7Zm0,0" transform="translate(-5.137 -5.109)" fill="#d1d4d1"/>
    <path id="Path_2" data-name="Path 2" d="M183.706,22.236V32.51a3.425,3.425,0,0,1-3.426,3.426H43.275a3.425,3.425,0,0,1-3.424-3.426V22.236a13.7,13.7,0,0,0-13.7-13.7H170.006a13.7,13.7,0,0,1,13.7,13.7Zm0,0" transform="translate(-15.354 -5.109)" fill="#d4e1f4"/>
    <path id="Path_3" data-name="Path 3" d="M152.938,35.936V200.342a6.87,6.87,0,0,1-6.85,6.85H15.931a6.871,6.871,0,0,1-6.85-6.85V15.385A6.7,6.7,0,0,1,11.1,10.554a5.323,5.323,0,0,1,.651-.582,6.637,6.637,0,0,1,4.178-1.438,13.7,13.7,0,0,1,13.7,13.7V32.51a3.425,3.425,0,0,0,3.424,3.426Zm0,0" transform="translate(-5.137 -5.109)" fill="#edf2f9"/>
    <path id="Path_4" data-name="Path 4" d="M173.43,22.236V32.51a3.425,3.425,0,0,1-3.424,3.426H43.275a3.425,3.425,0,0,1-3.424-3.426V22.236a13.7,13.7,0,0,0-13.7-13.7H159.73a13.7,13.7,0,0,1,13.7,13.7Zm0,0" transform="translate(-15.354 -5.109)" fill="#e3e7f2"/>
    <path id="Path_5" data-name="Path 5" d="M142.663,38.08V202.486a6.87,6.87,0,0,1-6.85,6.85H15.932a6.871,6.871,0,0,1-6.85-6.85V17.53A6.7,6.7,0,0,1,11.1,12.7c.205-.205,10.687-.411,10.927-.582a13.64,13.64,0,0,1,7.6,12.263V34.654a3.425,3.425,0,0,0,3.424,3.426Zm0,0" transform="translate(-5.137 -7.253)" fill="#edf2f9"/>
    <path id="Path_6" data-name="Path 6" d="M15.932,207.192H26.208a6.87,6.87,0,0,1-6.85-6.85V15.385a6.7,6.7,0,0,1,2.021-4.831,5.209,5.209,0,0,1,.651-.582c.034-.027.082-.038.116-.064a6.492,6.492,0,0,1,1.679-.922c.122-.049.249-.078.376-.121a6.819,6.819,0,0,1,2.007-.331H15.932a6.831,6.831,0,0,0-2.007.342c-.127.041-.252.072-.376.119a6.577,6.577,0,0,0-1.678.922c-.034.028-.083.038-.118.066a5.322,5.322,0,0,0-.651.582,6.7,6.7,0,0,0-2.021,4.82V200.342a6.871,6.871,0,0,0,6.85,6.85Zm0,0" transform="translate(-5.137 -5.109)" fill="#fff"/>
    <path id="Path_7" data-name="Path 7" d="M.551,210.558V25.6H7.4V210.558Zm0,0" transform="translate(-0.03 -15.325)" fill="#fff"/>
    <g id="Group_1" data-name="Group 1" transform="translate(0.5 0)">
      <path id="Path_8" data-name="Path 8" d="M10.826,205.509H140.982a10.275,10.275,0,0,0,10.275-10.276V34.251h13.7a6.85,6.85,0,0,0,6.85-6.85V17.127A17.145,17.145,0,0,0,154.683,0H10.826A10.275,10.275,0,0,0,.551,10.276V154.132a3.425,3.425,0,1,0,6.85,0V10.276A3.425,3.425,0,0,1,10.826,6.85,10.275,10.275,0,0,1,21.1,17.127V27.4a6.85,6.85,0,0,0,6.85,6.85H144.407V195.233a3.425,3.425,0,0,1-3.424,3.426H10.826A3.425,3.425,0,0,1,7.4,195.233v-13.7a3.425,3.425,0,0,0-6.85,0v13.7a10.275,10.275,0,0,0,10.275,10.276ZM24.438,6.85H154.682a10.275,10.275,0,0,1,10.275,10.276V27.4H27.952V17.126A16.955,16.955,0,0,0,24.438,6.85Zm0,0" transform="translate(-0.531 0)" fill="rgba(22,148,205,0.18)"/>
      <path id="Path_9" data-name="Path 9" d="M2.643,416.177a2.21,2.21,0,0,0,.616.205,5.312,5.312,0,0,0,.685.069,3.6,3.6,0,0,0,2.432-.994,3.54,3.54,0,0,0,0-4.864,3.553,3.553,0,0,0-1.13-.72,3.42,3.42,0,0,0-3.733,5.583l.514.411a2.61,2.61,0,0,0,.616.309Zm0,0" transform="translate(-0.5 -245.194)" fill="rgba(22,148,205,0.18)"/>
      <path id="Path_10" data-name="Path 10" d="M68.876,128H58.6a6.85,6.85,0,0,0-6.85,6.85V155.4a6.85,6.85,0,0,0,6.85,6.85H79.151A6.85,6.85,0,0,0,86,155.4v-3.424a3.425,3.425,0,1,0-6.85,0V155.4H58.6V134.85H68.876a3.425,3.425,0,0,0,0-6.85Zm0,0" transform="translate(-31.179 -76.623)" fill="rgba(22,148,205,0.18)"/>
      <path id="Path_11" data-name="Path 11" d="M51.75,274.867a6.85,6.85,0,0,0,6.85,6.85H79.151a6.85,6.85,0,0,0,6.85-6.85V254.316a6.851,6.851,0,0,0-6.85-6.852H58.6a6.851,6.851,0,0,0-6.85,6.852Zm6.85-20.551H79.151v20.551H58.6Zm0,0" transform="translate(-31.179 -148.136)" fill="rgba(22,148,205,0.18)"/>
      <path id="Path_12" data-name="Path 12" d="M51.75,394.334a6.85,6.85,0,0,0,6.85,6.85H79.151a6.85,6.85,0,0,0,6.85-6.85V373.784a6.85,6.85,0,0,0-6.85-6.85H58.6a6.85,6.85,0,0,0-6.85,6.85Zm6.85-20.551H79.151v20.551H58.6Zm0,0" transform="translate(-31.179 -219.652)" fill="rgba(22,148,205,0.18)"/>
      <path id="Path_13" data-name="Path 13" d="M166.108,151.917h17.126a3.425,3.425,0,1,0,0-6.85H166.108a3.425,3.425,0,0,0,0,6.85Zm0,0" transform="translate(-97.586 -86.839)" fill="rgba(22,148,205,0.18)"/>
      <path id="Path_14" data-name="Path 14" d="M277.162,145.066H242.909a3.425,3.425,0,0,0,0,6.85h34.252a3.425,3.425,0,0,0,0-6.85Zm0,0" transform="translate(-143.56 -86.839)" fill="rgba(22,148,205,0.18)"/>
      <path id="Path_15" data-name="Path 15" d="M166.108,186.05h34.252a3.425,3.425,0,0,0,0-6.85H166.108a3.425,3.425,0,0,0,0,6.85Zm0,0" transform="translate(-97.586 -107.272)" fill="rgba(22,148,205,0.18)"/>
      <path id="Path_16" data-name="Path 16" d="M302.7,179.2H285.575a3.425,3.425,0,1,0,0,6.85H302.7a3.425,3.425,0,0,0,0-6.85Zm0,0" transform="translate(-169.1 -107.271)" fill="rgba(22,148,205,0.18)"/>
      <path id="Path_17" data-name="Path 17" d="M166.108,271.386h17.126a3.425,3.425,0,1,0,0-6.85H166.108a3.425,3.425,0,0,0,0,6.85Zm0,0" transform="translate(-97.586 -158.355)" fill="rgba(22,148,205,0.18)"/>
      <path id="Path_18" data-name="Path 18" d="M277.162,264.535H242.909a3.425,3.425,0,0,0,0,6.85h34.252a3.425,3.425,0,0,0,0-6.85Zm0,0" transform="translate(-143.56 -158.355)" fill="rgba(22,148,205,0.18)"/>
      <path id="Path_19" data-name="Path 19" d="M166.108,305.518h34.252a3.425,3.425,0,0,0,0-6.85H166.108a3.425,3.425,0,0,0,0,6.85Zm0,0" transform="translate(-97.586 -178.787)" fill="rgba(22,148,205,0.18)"/>
      <path id="Path_20" data-name="Path 20" d="M302.7,298.668H285.575a3.425,3.425,0,1,0,0,6.85H302.7a3.425,3.425,0,0,0,0-6.85Zm0,0" transform="translate(-169.1 -178.788)" fill="rgba(22,148,205,0.18)"/>
      <path id="Path_21" data-name="Path 21" d="M166.108,390.85h17.126a3.425,3.425,0,1,0,0-6.85H166.108a3.425,3.425,0,0,0,0,6.85Zm0,0" transform="translate(-97.586 -229.868)" fill="rgba(22,148,205,0.18)"/>
      <path id="Path_22" data-name="Path 22" d="M277.162,384H242.909a3.425,3.425,0,0,0,0,6.85h34.252a3.425,3.425,0,0,0,0-6.85Zm0,0" transform="translate(-143.56 -229.869)" fill="rgba(22,148,205,0.18)"/>
      <path id="Path_23" data-name="Path 23" d="M166.108,424.983h34.252a3.425,3.425,0,0,0,0-6.85H166.108a3.425,3.425,0,0,0,0,6.85Zm0,0" transform="translate(-97.586 -250.301)" fill="rgba(22,148,205,0.18)"/>
      <path id="Path_24" data-name="Path 24" d="M302.7,418.133H285.575a3.425,3.425,0,1,0,0,6.85H302.7a3.425,3.425,0,0,0,0-6.85Zm0,0" transform="translate(-169.1 -250.301)" fill="rgba(22,148,205,0.18)"/>
      <path id="Path_25" data-name="Path 25" d="M78.356,129.077a3.425,3.425,0,0,0,0,4.843l6.85,6.85a3.427,3.427,0,0,0,2.421,1h.284a3.426,3.426,0,0,0,2.5-1.425l17.126-23.976a3.425,3.425,0,1,0-5.575-3.979L87.192,133.077l-3.993-3.99A3.426,3.426,0,0,0,78.356,129.077Zm0,0" transform="translate(-46.505 -66.421)" fill="rgba(22,148,205,0.18)"/>
    </g>
  </g>
</svg>
